<svg version="1.1" xmlns="http://www.w3.org/2000/svg" xmlns:xlink="http://www.w3.org/1999/xlink" width="512" height="512" viewBox="0,0,255.99431,255.99431"><g fill="none" fill-rule="nonzero" stroke="none" stroke-width="1" stroke-linecap="butt" stroke-linejoin="miter" stroke-miterlimit="10" stroke-dasharray="" stroke-dashoffset="0" font-family="none" font-weight="none" font-size="none" text-anchor="none" style="mix-blend-mode: normal"><g transform="scale(0.5,0.5)"><path d="M504.1,256c0,-137 -111.1,-248.1 -248.1,-248.1c-137,0 -248.1,111.1 -248.1,248.1c0,137 111.1,248.1 248.1,248.1c137,0 248.1,-111.1 248.1,-248.1z" fill="#3294be"></path><path d="M378.7,243.2l-174.9,-107.5c-4.8,-2.9 -11.1,-3.1 -16,-0.3c-5,2.8 -8.1,8.1 -8.1,13.8v214c0,5.7 3.1,11 8,13.8c2.4,1.3 5,2 7.7,2c2.9,0 5.7,-0.8 8.2,-2.3l174.9,-106.6c4.7,-2.8 7.6,-8 7.6,-13.4c0.2,-5.5 -2.7,-10.7 -7.4,-13.5z" fill="#ffffff"></path></g></g></svg>